<svg width="800" height="300" xmlns="http://www.w3.org/2000/svg" xmlns:xlink="http://www.w3.org/1999/xlink"><defs><linearGradient x1="100%" y1="50%" x2="0%" y2="50%" id="a"><stop stop-color="#003087" offset="0%"/><stop stop-color="#009CDE" offset="100%"/></linearGradient><path id="b" d="M.537.357h51.501V56H.537z"/><path id="d" d="M0 .821h83.204V99H0z"/><path id="f" d="M0 .821h75.421v87.286H0z"/><path id="h" d="M0 .821h75.421v87.286H0z"/></defs><g fill="none" fill-rule="evenodd"><path fill="url(#a)" d="M0 0h800v300H0z"/><path d="M512.196 143.792c-1.216 7.987-7.315 7.987-13.216 7.987h-3.356l2.354-14.912a1.856 1.856 0 0 1 1.832-1.566h1.539c4.016 0 7.81 0 9.765 2.288 1.17 1.37 1.524 3.398 1.082 6.203m-2.567-20.837h-22.251a3.09 3.09 0 0 0-3.053 2.61l-8.998 57.053a1.854 1.854 0 0 0 1.832 2.144h11.417a2.164 2.164 0 0 0 2.137-1.826l2.55-16.175a3.094 3.094 0 0 1 3.055-2.611h7.04c14.656 0 23.114-7.092 25.325-21.15.995-6.148.04-10.978-2.84-14.361-3.163-3.718-8.771-5.683-16.214-5.683M353.5 143.792c-1.217 7.987-7.317 7.987-13.216 7.987h-3.357l2.354-14.912a1.856 1.856 0 0 1 1.832-1.566h1.54c4.015 0 7.81 0 9.764 2.288 1.17 1.37 1.524 3.398 1.082 6.203m-2.567-20.837h-22.25a3.093 3.093 0 0 0-3.055 2.61l-8.997 57.053a1.855 1.855 0 0 0 1.832 2.144h10.624a3.093 3.093 0 0 0 3.054-2.61l2.427-15.391a3.093 3.093 0 0 1 3.054-2.612h7.041c14.655 0 23.114-7.092 25.324-21.15.995-6.148.04-10.978-2.838-14.36-3.165-3.719-8.773-5.684-16.216-5.684M402.587 164.275c-1.029 6.087-5.862 10.174-12.026 10.174-3.09 0-5.564-.994-7.154-2.876-1.576-1.865-2.17-4.524-1.67-7.484.96-6.033 5.87-10.252 11.94-10.252 3.026 0 5.482 1.003 7.103 2.904 1.632 1.913 2.274 4.588 1.807 7.534m14.848-20.738h-10.654c-.913 0-1.69.664-1.833 1.566l-.467 2.979-.746-1.08c-2.307-3.35-7.449-4.468-12.585-4.468-11.77 0-21.825 8.92-23.782 21.43-1.019 6.242.427 12.207 3.966 16.37 3.252 3.825 7.891 5.417 13.42 5.417 9.486 0 14.75-6.096 14.75-6.096l-.477 2.962a1.854 1.854 0 0 0 1.832 2.144h9.595a3.09 3.09 0 0 0 3.053-2.608l5.76-36.473a1.855 1.855 0 0 0-1.832-2.143M561.283 164.275c-1.029 6.087-5.86 10.174-12.025 10.174-3.09 0-5.565-.994-7.156-2.876-1.575-1.865-2.169-4.524-1.669-7.484.96-6.033 5.87-10.252 11.94-10.252 3.025 0 5.482 1.003 7.103 2.904 1.632 1.913 2.274 4.588 1.807 7.534m14.848-20.738h-10.654c-.913 0-1.69.664-1.833 1.566l-.467 2.979-.746-1.08c-2.307-3.35-7.45-4.468-12.585-4.468-11.77 0-21.825 8.92-23.782 21.43-1.018 6.242.427 12.207 3.966 16.37 3.251 3.825 7.891 5.417 13.42 5.417 9.486 0 14.75-6.096 14.75-6.096l-.477 2.962a1.854 1.854 0 0 0 1.832 2.144h9.595a3.09 3.09 0 0 0 3.053-2.608l5.76-36.473a1.855 1.855 0 0 0-1.832-2.143" fill="#FFF"/><g transform="translate(424 143.18)"><mask id="c" fill="#fff"><use xlink:href="#b"/></mask><path d="M50.18.357H39.473a3.096 3.096 0 0 0-2.558 1.356L22.142 23.47 15.88 2.563A3.091 3.091 0 0 0 12.92.357H2.393A1.856 1.856 0 0 0 .637 2.811l11.792 34.612-11.091 15.65C.467 54.3 1.346 56 2.852 56H13.55a3.09 3.09 0 0 0 2.54-1.33l35.615-51.4c.852-1.23-.028-2.913-1.524-2.913" fill="#FFF" mask="url(#c)"/></g><path d="M588.69 124.522l-9.133 58.097a1.855 1.855 0 0 0 1.832 2.142h9.185a3.09 3.09 0 0 0 3.053-2.609l9.004-57.053a1.854 1.854 0 0 0-1.832-2.144h-10.277c-.913 0-1.69.665-1.832 1.567" fill="#FFF"/><g transform="translate(198 100.18)"><mask id="e" fill="#fff"><use xlink:href="#d"/></mask><path d="M74.981 25.765c1.198-7.638-.008-12.834-4.139-17.542C66.294 3.04 58.078.82 47.565.82H17.051a4.366 4.366 0 0 0-4.312 3.686L.032 85.079a2.62 2.62 0 0 0 2.588 3.028h18.838l-1.3 8.245A2.29 2.29 0 0 0 22.421 99H38.3c1.88 0 3.48-1.367 3.773-3.223l.156-.808L45.22 76l.193-1.048a3.82 3.82 0 0 1 3.772-3.224h2.375c15.383 0 27.428-6.25 30.947-24.323 1.471-7.553.71-13.856-3.178-18.288-1.177-1.341-2.64-2.45-4.347-3.353" fill="#FFF" opacity=".678" mask="url(#e)"/></g><g transform="translate(198 100.18)"><mask id="g" fill="#fff"><use xlink:href="#f"/></mask><path d="M74.981 25.765c1.198-7.638-.008-12.834-4.139-17.542C66.294 3.04 58.078.82 47.565.82H17.051a4.366 4.366 0 0 0-4.312 3.686L.032 85.079a2.62 2.62 0 0 0 2.588 3.028h18.838L26.19 58.1l-.147.94a4.35 4.35 0 0 1 4.297-3.684h8.953c17.584 0 31.353-7.144 35.376-27.804.12-.612.221-1.204.312-1.787" fill="#FFF" opacity=".696" mask="url(#g)"/></g><g transform="translate(198 100.18)"><mask id="i" fill="#fff"><use xlink:href="#h"/></mask><path d="M31.274 25.866a3.818 3.818 0 0 1 3.772-3.224h23.919c2.834 0 5.476.185 7.892.575.69.11 1.362.238 2.014.383a28.223 28.223 0 0 1 2.804.768 21.58 21.58 0 0 1 3.307 1.397c1.197-7.638-.01-12.835-4.14-17.542C66.295 3.04 58.078.82 47.566.82H17.052a4.366 4.366 0 0 0-4.313 3.686L.033 85.079a2.62 2.62 0 0 0 2.587 3.028h18.839L26.19 58.1l5.083-32.234z" fill="#FFF" mask="url(#i)"/></g></g></svg>